<svg width="96" height="96" viewBox="0 0 96 96" fill="none" xmlns="http://www.w3.org/2000/svg">
<path d="M62.6357 59.985C62.6357 69.0729 54.1243 68.8629 53.2243 68.8629H35.8907V51.3579H53.2243C62.3443 51.3579 62.6357 58.1936 62.6357 59.985ZM51.8893 44.3143C52.0329 44.3143 60.1264 44.5286 60.1264 36.5336C60.1264 33.2079 59.3743 28.8471 51.8893 28.8471H35.8907V44.3143H51.8893ZM96 16.0007V79.9993C95.9876 84.2391 94.2978 88.3017 91.2998 91.2998C88.3017 94.2978 84.2391 95.9876 79.9993 96H16.0007C11.7609 95.9876 7.69826 94.2978 4.70024 91.2998C1.70222 88.3017 0.0124369 84.2391 0 79.9993L0 16.0007C0.0124369 11.7609 1.70222 7.69826 4.70024 4.70024C7.69826 1.70222 11.7609 0.0124369 16.0007 0H79.9993C84.2391 0.0124369 88.3017 1.70222 91.2998 4.70024C94.2978 7.69826 95.9876 11.7609 96 16.0007ZM72.4393 61.2557C72.4393 56.6336 71.0143 48.765 61.9286 46.8236V46.6671C66.8379 44.5714 69.93 40.6136 69.93 34.7443C69.93 33.2443 70.3586 20.8629 53.3014 20.8629H26.0871V76.8621C53.565 76.8621 56.0593 77.2221 61.1443 75.6386C64.1893 74.6914 72.4393 71.7857 72.4393 61.2557Z" fill="#E9C46A"/>
</svg>
