<svg width="96" height="96" viewBox="0 0 96 96" fill="none" xmlns="http://www.w3.org/2000/svg">
<path d="M96 13.7143V22.2857C96 29.8393 74.5001 36 48 36C21.4999 36 0 29.8393 0 22.2857V13.7143C0 6.16069 21.4999 0 48 0C74.5001 0 96 6.16069 96 13.7143ZM96 33V52.2857C96 59.8393 74.5001 66 48 66C21.4999 66 0 59.8393 0 52.2857V33C10.3125 39.2143 29.1874 42.1073 48 42.1073C66.8126 42.1073 85.6873 39.2143 96 33ZM96 63V82.2857C96 89.8393 74.5001 96 48 96C21.4999 96 0 89.8393 0 82.2857V63C10.3125 69.2143 29.1874 72.1072 48 72.1072C66.8126 72.1072 85.6873 69.2143 96 63Z" fill="#E9C46A"/>
</svg>
