<svg width="96" height="96" viewBox="0 0 96 96" fill="none" xmlns="http://www.w3.org/2000/svg">
<path d="M85.7143 0H10.2857C4.60714 0 0 4.60714 0 10.2857V85.7143C0 91.3929 4.60714 96 10.2857 96H85.7143C91.3929 96 96 91.3929 96 85.7143V10.2857C96 4.60714 91.3929 0 85.7143 0ZM52.2429 74.8714C52.2429 84.2143 46.7571 88.4786 38.7643 88.4786C31.5429 88.4786 27.3643 84.75 25.2214 80.2286L32.5714 75.7929C33.9857 78.3 35.2714 80.4214 38.3786 80.4214C41.3357 80.4214 43.2214 79.2643 43.2214 74.7429V44.0786H52.2429V74.8714ZM73.5857 88.4786C65.2071 88.4786 59.7857 84.4929 57.15 79.2643L64.5 75.0214C66.4286 78.1714 68.9571 80.5071 73.3929 80.5071C77.1214 80.5071 79.5214 78.6429 79.5214 76.05C79.5214 72.9643 77.0786 71.8714 72.9429 70.05L70.6929 69.0857C64.1786 66.3214 59.8714 62.8286 59.8714 55.4786C59.8714 48.7071 65.0357 43.5643 73.0714 43.5643C78.8143 43.5643 82.9286 45.5571 85.8857 50.7857L78.8571 55.2857C77.3143 52.5214 75.6429 51.4286 73.05 51.4286C70.4143 51.4286 68.7429 53.1 68.7429 55.2857C68.7429 57.9857 70.4143 59.0786 74.2929 60.7714L76.5429 61.7357C84.2143 65.0143 88.5214 68.3786 88.5214 75.9214C88.5214 84.0214 82.1357 88.4786 73.5857 88.4786Z" fill="#E9C46A"/>
</svg>
