<svg width="169" height="58" viewBox="0 0 169 58" fill="none" xmlns="http://www.w3.org/2000/svg">
<path d="M73.4636 44.9091C71.4273 44.9091 69.6295 44.3947 68.0705 43.3659C66.5114 42.3265 65.2917 40.8629 64.4114 38.975C63.5311 37.0765 63.0909 34.8333 63.0909 32.2454C63.0909 29.6788 63.5311 27.4515 64.4114 25.5636C65.2917 23.6758 66.5167 22.2174 68.0864 21.1886C69.6561 20.1598 71.4697 19.6455 73.5273 19.6455C75.1182 19.6455 76.375 19.9106 77.2977 20.4409C78.2311 20.9606 78.9417 21.5545 79.4295 22.2227C79.928 22.8803 80.3152 23.4212 80.5909 23.8454H80.9091V11.8182H84.6636V44.4H81.0364V40.6455H80.5909C80.3152 41.0909 79.9227 41.653 79.4136 42.3318C78.9045 43 78.178 43.5992 77.2341 44.1295C76.2902 44.6492 75.0333 44.9091 73.4636 44.9091ZM73.9727 41.5364C75.4788 41.5364 76.7515 41.1439 77.7909 40.3591C78.8303 39.5636 79.6205 38.4659 80.1614 37.0659C80.7023 35.6553 80.9727 34.0273 80.9727 32.1818C80.9727 30.3576 80.7076 28.7614 80.1773 27.3932C79.647 26.0144 78.8621 24.9432 77.8227 24.1795C76.7833 23.4053 75.5 23.0182 73.9727 23.0182C72.3818 23.0182 71.0561 23.4265 69.9955 24.2432C68.9455 25.0492 68.1553 26.147 67.625 27.5364C67.1053 28.9151 66.8455 30.4636 66.8455 32.1818C66.8455 33.9212 67.1106 35.5015 67.6409 36.9227C68.1818 38.3333 68.9773 39.4576 70.0273 40.2955C71.0879 41.1227 72.403 41.5364 73.9727 41.5364Z" fill="white"/>
<path d="M102.307 44.9091C99.9523 44.9091 97.9212 44.3894 96.2136 43.35C94.5167 42.3 93.2068 40.8364 92.2841 38.9591C91.372 37.0712 90.9159 34.8758 90.9159 32.3727C90.9159 29.8697 91.372 27.6636 92.2841 25.7545C93.2068 23.8348 94.4902 22.3394 96.1341 21.2682C97.7886 20.1864 99.7189 19.6455 101.925 19.6455C103.198 19.6455 104.455 19.8576 105.695 20.2818C106.936 20.7061 108.066 21.3954 109.084 22.35C110.102 23.2939 110.914 24.5454 111.518 26.1045C112.123 27.6636 112.425 29.5833 112.425 31.8636V33.4545H93.5886V30.2091H108.607C108.607 28.8303 108.331 27.6 107.78 26.5182C107.239 25.4364 106.464 24.5826 105.457 23.9568C104.46 23.3311 103.283 23.0182 101.925 23.0182C100.43 23.0182 99.1356 23.3894 98.0432 24.1318C96.9614 24.8636 96.1288 25.8182 95.5455 26.9954C94.9621 28.1727 94.6705 29.4348 94.6705 30.7818V32.9454C94.6705 34.7909 94.9886 36.3553 95.625 37.6386C96.272 38.9114 97.1682 39.8818 98.3136 40.55C99.4591 41.2076 100.79 41.5364 102.307 41.5364C103.293 41.5364 104.184 41.3985 104.98 41.1227C105.786 40.8364 106.48 40.4121 107.064 39.85C107.647 39.2773 108.098 38.5667 108.416 37.7182L112.043 38.7364C111.661 39.9667 111.02 41.0485 110.118 41.9818C109.217 42.9045 108.103 43.6258 106.777 44.1455C105.452 44.6545 103.961 44.9091 102.307 44.9091Z" fill="white"/>
<path d="M137.374 19.9636L128.338 44.4H124.52L115.484 19.9636H119.556L126.302 39.4364H126.556L133.302 19.9636H137.374Z" fill="white"/>
<path d="M73.8 1H60.8481L32.825 29L60.8481 57H73.8L46.0123 29L73.8 1Z" fill="white"/>
<path d="M36.5928 10.6471L48.6027 1H25.5248C4.80179 1 0.562997 19.6667 1.03397 29C1.03397 51.4 17.3612 57 25.5248 57H48.6027L36.5928 47.3529H25.5248C14.033 47.3529 10.689 35.1176 10.4535 29C10.4535 15.4471 20.501 11.1176 25.5248 10.6471H36.5928Z" fill="white"/>
<path d="M73.8 1H60.8481L32.825 29L60.8481 57H73.8L46.0123 29L73.8 1Z" stroke="white"/>
<path d="M36.5928 10.6471L48.6027 1H25.5248C4.80179 1 0.562997 19.6667 1.03397 29C1.03397 51.4 17.3612 57 25.5248 57H48.6027L36.5928 47.3529H25.5248C14.033 47.3529 10.689 35.1176 10.4535 29C10.4535 15.4471 20.501 11.1176 25.5248 10.6471H36.5928Z" stroke="white"/>
<path d="M127 57L139.833 57L167.6 29L139.833 1L127 1L154.533 29L127 57Z" fill="white" stroke="white"/>
</svg>
