<svg width="96" height="96" viewBox="0 0 96 96" fill="none" xmlns="http://www.w3.org/2000/svg">
<path d="M78.4125 31.1099C77.4 30.7242 76.3875 30.36 75.375 30.0171C75.5437 29.2243 75.6937 28.4315 75.8438 27.6387C78.15 14.868 76.6312 4.60422 71.5125 1.21868C66.5812 -2.01686 58.5375 1.34725 50.4 9.44682C49.5937 10.2396 48.8062 11.0753 48.0562 11.911C47.55 11.3539 47.025 10.7967 46.5 10.2611C37.9688 1.60438 29.4188 -2.03828 24.3 1.36868C19.3875 4.62565 17.925 14.2894 19.9875 26.3745C20.1938 27.5744 20.4188 28.7529 20.6813 29.9529C19.4813 30.3386 18.3 30.7671 17.1937 31.2171C7.18125 35.1812 0 41.438 0 47.909C0 54.5944 7.65 61.3012 18.0563 65.3724C18.9 65.6938 19.7437 66.0152 20.6063 66.2938C20.325 67.5794 20.0813 68.8436 19.8563 70.1507C17.8875 82.0429 19.425 91.471 24.3375 94.7066C29.4 98.0492 37.9125 94.6208 46.2 86.3284C46.8562 85.6642 47.5125 84.9785 48.1687 84.25C48.9937 85.1713 49.8563 86.0499 50.7188 86.907C58.7438 94.7923 66.675 97.9849 71.5688 94.7494C76.6313 91.4067 78.2812 81.2716 76.1438 68.9294C75.975 67.9865 75.7875 67.0223 75.5813 66.0367C76.1813 65.8438 76.7625 65.6295 77.3438 65.4153C88.1625 61.3226 96 54.7015 96 47.909C96 41.4165 88.6125 35.1169 78.4125 31.1099ZM53.0437 12.9181C60.0187 5.97557 66.525 3.25429 69.4875 5.20419C72.6562 7.28265 73.875 15.6822 71.8875 26.7173C71.7562 27.4459 71.625 28.153 71.4563 28.8601C67.2938 27.7887 63.075 27.0173 58.8375 26.5888C56.4 22.6033 53.7375 18.7892 50.85 15.2108C51.5813 14.418 52.2937 13.668 53.0437 12.9181ZM31.35 59.0299C32.3062 60.8941 33.2812 62.7583 34.3125 64.5796C31.3875 64.2153 28.4813 63.6796 25.6125 62.9725C26.4375 59.887 27.4687 56.6943 28.6687 53.4373C29.5312 55.3229 30.4125 57.1871 31.35 59.0299ZM25.6687 33.2527C28.3687 32.567 31.2375 32.0099 34.2188 31.5813C33.225 33.3598 32.25 35.1812 31.3313 37.0239C30.4125 38.8452 29.5125 40.7094 28.6687 42.595C27.4875 39.4024 26.4937 36.274 25.6687 33.2527ZM30.8063 48.0162C32.0438 45.0592 33.3937 42.1665 34.8187 39.3166C36.2437 36.4668 37.7812 33.7027 39.3938 30.9814C42.2063 30.7457 45.075 30.6171 48 30.6171C50.925 30.6171 53.8125 30.7457 56.6062 30.9814C58.2 33.6812 59.7188 36.4454 61.1625 39.2738C62.6063 42.1022 63.9562 44.9949 65.2312 47.9305C63.975 50.8875 62.625 53.8016 61.1812 56.6729C59.7562 59.5227 58.2375 62.2868 56.6438 65.0296C53.85 65.2653 50.9437 65.3724 48 65.3724C45.0563 65.3724 42.2062 65.2653 39.45 65.0724C37.8187 62.3511 36.2812 59.5656 34.8375 56.7157C33.3937 53.8659 32.0625 50.9732 30.8063 48.0162ZM64.6687 58.987C65.625 57.1014 66.525 55.1944 67.4062 53.2659C68.6062 56.3729 69.6562 59.5227 70.575 62.7583C67.6687 63.5082 64.725 64.0868 61.7625 64.4724C62.775 62.6725 63.7312 60.8298 64.6687 58.987ZM67.3687 42.595C66.4875 40.7094 65.5875 38.8238 64.65 36.9811C63.7312 35.1597 62.775 33.3598 61.7812 31.5813C64.8 32.0099 67.6875 32.5884 70.3875 33.2955C69.525 36.4668 68.5125 39.5523 67.3687 42.595ZM48.0375 18.4892C50.0063 20.9319 51.8625 23.5032 53.5875 26.1602C49.875 25.9674 46.1437 25.9674 42.4313 26.1602C44.2687 23.3961 46.1625 20.8248 48.0375 18.4892ZM26.2875 5.35418C29.4375 3.25429 36.4313 6.25413 43.8 13.7109C44.2688 14.1823 44.7375 14.6965 45.225 15.2108C42.3187 18.7892 39.6375 22.6033 37.1813 26.5888C32.9438 27.0173 28.7438 27.7673 24.5813 28.8172C24.3375 27.7244 24.1313 26.6102 23.925 25.496C22.1625 15.1251 23.325 7.30407 26.2875 5.35418ZM21.6937 61.8369C20.9062 61.5797 20.1375 61.3012 19.3688 61.0012C15.375 59.5656 10.8375 57.2943 7.55625 54.3158C5.6625 52.8159 4.3875 50.5018 4.03125 47.909C4.03125 43.9878 9.95625 38.9738 18.5062 35.5668C19.575 35.1383 20.6625 34.7526 21.75 34.3883C23.025 39.0381 24.5625 43.6021 26.3438 48.0162C24.5438 52.4945 22.9875 57.1228 21.6937 61.8369ZM43.5563 82.8358C40.4625 86.0713 36.8812 88.6426 32.9812 90.3996C30.9 91.5353 28.5 91.6424 26.3625 90.6782C23.3813 88.7069 22.1437 81.143 23.8312 70.965C24.0375 69.765 24.2625 68.5651 24.525 67.3866C28.725 68.4151 32.9625 69.1222 37.2562 69.4865C39.7313 73.4934 42.45 77.3289 45.3562 80.9287C44.7562 81.593 44.1562 82.2358 43.5563 82.8358ZM48.15 77.6289C46.2375 75.2719 44.325 72.6577 42.4688 69.8507C44.2687 69.9364 46.125 69.9793 48 69.9793C49.9313 69.9793 51.825 69.9364 53.7 69.8293C51.975 72.5506 50.1187 75.1433 48.15 77.6289ZM72.6562 84.0571C72.4875 86.6713 71.3625 89.114 69.5625 90.7639C66.5813 92.7352 60.225 90.1639 53.3625 83.4357C52.575 82.6643 51.7875 81.8287 50.9812 80.9716C53.85 77.3503 56.4938 73.5148 58.8938 69.4865C63.1875 69.0793 67.4625 68.3294 71.6812 67.2366C71.8687 68.1151 72.0375 68.9936 72.1875 69.8507C73.1062 74.4791 73.2562 79.3002 72.6562 84.0571ZM76.0688 61.0226C75.5438 61.2155 75.0188 61.4083 74.475 61.5797C73.1625 56.9086 71.55 52.3445 69.6938 47.909C71.4938 43.5379 73.0125 39.0381 74.2875 34.4312C75.2625 34.7526 76.2 35.0954 77.1 35.4383C85.8375 38.8667 91.9688 43.9664 91.9688 47.8662C91.9688 52.066 85.425 57.4871 76.0688 61.0226ZM48 57.8085C52.7438 57.8085 56.5875 53.4159 56.5875 47.9948C56.5875 42.5736 52.7438 38.181 48 38.181C43.2562 38.181 39.4125 42.5736 39.4125 47.9948C39.4125 53.4159 43.2562 57.8085 48 57.8085Z" fill="#E9C46A"/>
</svg>
